<svg width="149" height="141" viewBox="0 0 149 141" fill="none" xmlns="http://www.w3.org/2000/svg">
<g clip-path="url(#clip0_125_3)">
<path d="M48.9442 20.096V68.48C48.9442 74.24 49.1362 78.464 49.7122 82.976H28.4962C29.0722 78.464 29.2642 74.528 29.2642 68.48V20.096H17.9362C11.8882 20.096 10.2562 20.192 3.44024 20.768V2.432C6.60824 2.816 11.8882 3.10399 17.7442 3.10399H59.7922C66.5122 3.10399 70.3522 2.912 74.7682 2.432V20.768C70.4482 20.288 66.7042 20.096 59.7922 20.096H48.9442ZM128.858 82.976H95.1622C86.5222 82.976 84.3142 83.072 80.7622 83.36C81.1462 78.656 81.6262 75.776 82.7782 72.032C85.2742 64.064 89.8822 56.768 96.6022 50.528C100.25 47.168 103.898 44.384 113.69 37.76C121.946 32.192 123.962 29.696 123.962 25.28C123.962 20.672 119.834 17.6 113.69 17.6C109.082 17.6 105.818 19.136 103.706 22.4C102.362 24.512 101.786 26.432 101.306 30.464L81.1462 28.352C82.5862 20 84.3142 15.776 88.1542 11.264C93.6262 4.832 102.362 1.37599 113.594 1.37599C126.554 1.37599 136.442 5.696 141.242 13.472C143.354 16.832 144.41 20.576 144.41 24.704C144.41 31.712 141.53 37.664 135.578 42.56C132.41 45.344 131.45 46.016 121.658 52.832C113.306 58.592 109.754 61.952 107.546 66.176H129.914C137.114 66.176 141.53 65.984 145.274 65.504V83.648C139.706 83.168 135.674 82.976 128.858 82.976Z" fill="#FA6946"/>
<path d="M146.041 99.4459L13.1609 137.008L7.96373 97.8064L146.041 99.4459Z" fill="#FA6946"/>
</g>
<defs>
<clipPath id="clip0_125_3">
<rect width="149" height="141" fill="white"/>
</clipPath>
</defs>
</svg>
