<svg width="698" height="150" viewBox="0 0 698 150" fill="none" xmlns="http://www.w3.org/2000/svg">
<g clip-path="url(#clip0_125_2)">
<path d="M46.944 27.096V75.48C46.944 81.24 47.136 85.464 47.712 89.976H26.496C27.072 85.464 27.264 81.528 27.264 75.48V27.096H15.936C9.888 27.096 8.256 27.192 1.44 27.768V9.432C4.608 9.816 9.888 10.104 15.744 10.104H57.792C64.512 10.104 68.352 9.912 72.768 9.432V27.768C68.448 27.288 64.704 27.096 57.792 27.096H46.944ZM128.144 66.072H84.9435C85.9035 73.848 90.4155 77.976 97.9995 77.976C101.84 77.976 105.2 76.728 107.696 74.424C109.136 73.08 109.808 72.024 110.576 69.528L127.28 74.232C125.072 79.224 123.632 81.432 120.944 84.12C115.472 89.496 107.792 92.28 98.2875 92.28C88.8795 92.28 81.4875 89.592 76.0155 84.12C70.3515 78.36 67.2795 70.2 67.2795 60.696C67.2795 41.688 79.4715 29.112 97.8075 29.112C112.784 29.112 123.248 37.272 126.608 51.576C127.376 54.648 127.76 58.68 128.048 64.152C128.048 64.536 128.048 65.112 128.144 66.072ZM85.2315 52.824H109.904C108.56 46.68 104.432 43.416 97.8075 43.416C90.9915 43.416 86.8635 46.488 85.2315 52.824ZM174.365 52.056V49.848C174.365 45.24 171.581 43.128 165.245 43.128C159.101 43.128 155.837 45.144 154.397 49.848L136.061 46.872C137.981 41.208 140.093 38.136 144.125 35.256C149.309 31.608 156.413 29.784 165.725 29.784C172.829 29.784 179.741 31.128 183.485 33.144C189.629 36.504 192.317 41.784 192.317 50.424V76.344C192.317 82.2 192.509 85.656 192.989 89.976H174.365V85.56C168.989 89.688 163.613 91.32 155.741 91.32C148.445 91.32 142.973 89.592 139.133 86.04C135.677 82.872 133.853 78.264 133.853 72.984C133.853 66.936 136.253 62.136 140.861 58.968C145.757 55.512 152.189 53.496 160.829 52.728C164.573 52.344 167.453 52.248 174.365 52.056ZM174.365 67.032V64.344C165.821 64.536 161.693 65.016 157.757 66.264C154.301 67.416 152.189 69.816 152.189 72.6C152.189 76.056 155.069 78.072 160.061 78.072C163.997 78.072 168.317 76.632 170.909 74.424C173.117 72.504 174.365 69.912 174.365 67.032ZM222.958 89.976H203.182C203.758 85.56 203.95 81.528 203.95 75.48V45.912C203.95 38.616 203.758 35.16 203.182 31.416H222.19V35.448C222.19 35.832 222.19 35.832 222.094 36.792C222.094 36.792 222.094 36.984 222.094 37.272C222.094 37.368 222.094 37.56 222.094 37.752C226.99 32.376 232.846 29.88 240.43 29.88C245.422 29.88 249.55 31.032 252.718 33.336C254.446 34.584 255.406 35.736 256.654 38.136C262.606 32.28 268.462 29.784 276.814 29.784C290.542 29.784 297.55 37.272 297.55 51.768V75.576C297.55 81.528 297.742 85.464 298.318 89.976H278.35C278.926 85.464 279.118 82.008 279.118 75.48V55.704C279.118 48.504 277.006 45.72 271.534 45.72C266.638 45.72 262.222 49.56 259.822 55.992V75.576C259.822 81.336 260.014 85.368 260.59 89.976H240.622C241.198 85.656 241.39 81.624 241.39 75.48V55.704C241.39 51.672 241.006 49.848 239.758 48.216C238.702 46.68 236.782 45.816 234.478 45.816C229.294 45.816 224.878 49.56 222.19 56.088V75.48C222.19 81.528 222.382 85.272 222.958 89.976ZM355.796 89.976H322.1C313.46 89.976 311.252 90.072 307.7 90.36C308.084 85.656 308.564 82.776 309.716 79.032C312.212 71.064 316.82 63.768 323.54 57.528C327.188 54.168 330.836 51.384 340.628 44.76C348.884 39.192 350.9 36.696 350.9 32.28C350.9 27.672 346.772 24.6 340.628 24.6C336.02 24.6 332.756 26.136 330.644 29.4C329.3 31.512 328.724 33.432 328.244 37.464L308.084 35.352C309.523 27 311.252 22.776 315.092 18.264C320.564 11.832 329.3 8.37599 340.532 8.37599C353.492 8.37599 363.38 12.696 368.18 20.472C370.292 23.832 371.348 27.576 371.348 31.704C371.348 38.712 368.468 44.664 362.516 49.56C359.348 52.344 358.388 53.016 348.596 59.832C340.244 65.592 336.692 68.952 334.484 73.176H356.852C364.052 73.176 368.468 72.984 372.212 72.504V90.648C366.644 90.168 362.612 89.976 355.796 89.976ZM425.822 10.104L444.926 10.2C444.446 13.848 444.35 16.344 444.254 22.008L443.678 72.888C463.07 68.568 477.47 57.624 486.206 40.248C490.622 46.584 493.598 49.848 499.166 54.072C485.246 75.576 467.486 86.712 439.166 91.608C435.614 92.28 435.038 92.376 433.406 93.336L424.862 83.352C425.822 81.336 425.918 80.28 426.014 75.48L426.398 22.104C426.398 21.624 426.398 21.048 426.398 20.568C426.398 16.056 426.206 12.984 425.822 10.104ZM520.766 22.488L529.31 8.952C540.638 13.08 548.798 16.824 556.862 21.528L548.318 36.216C538.43 29.784 530.462 25.848 520.766 22.488ZM513.278 46.2L522.11 32.472C533.15 36.792 540.254 40.344 548.894 46.008L540.734 61.08C532.478 54.936 524.03 50.328 513.278 46.2ZM520.862 92.568L516.062 74.424C524.51 74.232 536.414 71.736 545.726 68.088C557.054 63.672 565.598 57.048 572.606 47.448C577.214 41.016 579.998 35.448 583.166 26.328C588.926 32.376 591.71 34.872 597.182 38.232C592.286 49.752 588.35 56.376 582.206 63.288C572.51 74.424 560.606 81.912 545.15 86.808C539.486 88.632 535.358 89.592 527.678 91.032C524.894 91.512 522.974 91.992 520.862 92.568ZM633.086 23.736V36.696C646.334 34.2 667.166 25.752 672.35 20.856L682.814 35.928C679.742 37.368 679.454 37.464 673.694 40.248C661.694 45.528 646.718 50.136 633.086 52.632V63.384C633.086 69.432 633.086 69.432 633.47 70.776C634.046 72.6 635.294 73.368 638.078 73.752C641.438 74.136 644.414 74.328 648.254 74.328C653.726 74.328 661.214 73.944 666.974 73.368C674.078 72.6 677.822 71.928 683.486 70.296L684.158 88.056C681.854 88.056 679.07 88.248 674.27 88.728C664.67 89.592 653.918 90.168 646.238 90.168C633.086 90.168 626.462 89.016 622.046 85.944C619.07 83.736 617.342 80.568 616.67 75.576C616.382 73.656 616.286 70.872 616.286 65.4V23.64C616.286 17.208 616.094 13.944 615.71 10.872H633.662C633.182 13.848 633.086 16.248 633.086 23.736ZM684.446 3.576C690.398 3.576 695.198 8.37599 695.198 14.424C695.198 20.376 690.398 25.272 684.446 25.272C678.494 25.272 673.502 20.28 673.502 14.424C673.502 8.472 678.494 3.576 684.446 3.576ZM684.446 8.952C681.47 8.952 678.974 11.448 678.974 14.424C678.974 17.304 681.47 19.8 684.35 19.8C687.326 19.8 689.822 17.304 689.822 14.424C689.822 11.448 687.326 8.952 684.446 8.952Z" fill="#FA6946"/>
<path d="M373.132 99.4537L18.4802 149.826L15.0535 109.203L373.132 99.4537Z" fill="#FA6946"/>
</g>
<defs>
<clipPath id="clip0_125_2">
<rect width="698" height="150" fill="white"/>
</clipPath>
</defs>
</svg>
